<svg xmlns="http://www.w3.org/2000/svg" width="189.586" height="178.688" viewBox="0 0 189.586 178.688">
  <g id="Group_18303" data-name="Group 18303" transform="translate(510.2 10.467)">
    <path id="Path_83994" data-name="Path 83994" d="M-169.987,48.138h0a24.374,24.374,0,0,0,8.23,1.475,19.363,19.363,0,0,0,3.6-.323c4.443-.842,7.611-3.285,8.922-6.879l.132-.363v-.024c1.126-3.519.206-7.306-2.615-10.707a23.219,23.219,0,0,0-9.713-6.644,23.192,23.192,0,0,0-11.726-1.16c-4.5.821-7.705,3.268-9.023,6.888-1.215,3.33-.519,7.035,1.958,10.433A21.93,21.93,0,0,0-169.987,48.138Zm13.027-8.544c-.289.792-1.433,1.424-3.06,1.689a14.788,14.788,0,0,1-7.151-.868c-5.26-1.918-7.87-5.6-7.288-7.2h0c.465-1.275,2.419-1.639,3.543-1.742.361-.033.738-.049,1.126-.049a16.885,16.885,0,0,1,5.543.973,16.687,16.687,0,0,1,5.626,3.554C-157.8,36.767-156.5,38.328-156.96,39.594Z" transform="translate(-217.62 -22.381)" fill="#f0f0f0"/>
    <path id="Path_83995" data-name="Path 83995" d="M-453.618,125.763c-8.243,5.358-11.711,14.155-7.9,20.026,1.985,3.054,5.365,4.71,9.573,4.709.251,0,.506-.006.763-.018a23.212,23.212,0,0,0,11.17-3.775,23.217,23.217,0,0,0,7.975-8.668c2.051-4.09,2.024-8.124-.078-11.357C-436.37,120.126-446.391,121.067-453.618,125.763Zm-1,15.546c-.924-1.425.79-5.6,5.482-8.654,3.443-2.237,8.905-3.389,10.135-1.5,1.252,1.926-1.968,6.368-5.483,8.653C-449.18,142.862-453.694,142.733-454.621,141.309Z" transform="translate(-31.33 -88.042)" fill="#f0f0f0"/>
    <path id="Path_83996" data-name="Path 83996" d="M-427.778,250.195a4.078,4.078,0,0,0-3.066.719,4.116,4.116,0,0,0-.939,5.735c10.865,15.126,23.32,29.786,34.169,40.222a4.1,4.1,0,0,0,2.849,1.146,4.1,4.1,0,0,0,2.962-1.258,4.084,4.084,0,0,0,1.148-2.93,4.085,4.085,0,0,0-1.26-2.883h0c-10.506-10.1-22.6-24.354-33.192-39.093A4.083,4.083,0,0,0-427.778,250.195Z" transform="translate(-51.606 -173.204)" fill="#f0f0f0"/>
    <path id="Path_83997" data-name="Path 83997" d="M-330.428,75.564h0c-6.887-8.852-15.013-14.281-24.186-16.173.883-2.092,1.645-4.022,2.31-5.846,5.484-15.045,6.016-28.1,1.582-38.794C-354.875,4.732-363.463-2.895-375.557-7.3c-13.116-4.782-24.892-4.141-35,1.907-9.307,5.567-16.9,15.84-21.953,29.707-1.357,3.723-2.612,7.771-3.745,12.079-7.359-7.878-15.476-12.683-24.176-14.3-9.906-1.843-20.026.536-30.079,7.07-11.138,7.239-17.827,16.973-19.342,28.151-1.52,11.212,1.968,23.449,10.366,36.37a153.869,153.869,0,0,0,27.494,31.444c10.191,8.837,20.441,15.263,29.758,18.671-.188,6.17,1.294,11.322,4.414,15.332,5.43,6.979,14.38,9.095,23.239,9.095a80.111,80.111,0,0,0,18.922-2.578c17.544-4.405,37.212-14.189,52.611-26.172,12.638-9.833,20.023-20.609,21.948-32.027C-319.3,96.747-322.523,85.724-330.428,75.564Zm-100.908,78.513c-5.144-6.612-3.205-19.17,5.318-34.455,8.237-14.769,21.541-30.112,35.588-41.043,10.036-7.808,19.617-11.766,28.482-11.766h.058c9.461.019,17.864,4.661,24.973,13.8,7.086,9.107,9.536,18.352,7.284,27.479-2.133,8.642-8.347,17.016-18.469,24.892-14.545,11.317-33.074,20.545-49.564,24.686C-413.837,161.732-426.424,160.389-431.335,154.078Zm24.55-152.155c8-4.953,17.557-5.459,28.414-1.5C-367.53,4.371-360.543,10.9-357.6,19.832c2.784,8.454,1.968,18.851-2.424,30.9-.9,2.458-1.957,5.065-3.228,7.934a43.946,43.946,0,0,0-13.34,2.663c2.238-4.731,4.35-9.465,6.3-14.134a4.083,4.083,0,0,0,.012-3.147,4.08,4.08,0,0,0-2.215-2.231,4.084,4.084,0,0,0-3.147-.011,4.081,4.081,0,0,0-2.232,2.217c-3.23,7.719-6.886,15.568-10.871,23.338a107.717,107.717,0,0,0-13.4,10.273L-391.75,49.12a4.081,4.081,0,0,0-.135-3.143,4.077,4.077,0,0,0-2.313-2.125,4.073,4.073,0,0,0-3.14.13,4.087,4.087,0,0,0-2.134,2.322l-12.406,34.032c-1.213-3.546-2.568-7.078-4.052-10.558a325.244,325.244,0,0,1,9.119-36.3,4.116,4.116,0,0,0-2.7-5.148,4.082,4.082,0,0,0-3.135.281,4.08,4.08,0,0,0-2.017,2.416c-2.67,8.545-5.1,17.625-7.106,26.578a127,127,0,0,0-8.009-13.184,138.8,138.8,0,0,1,4.983-17.291C-420.4,15.083-414.343,6.6-406.785,1.922Zm-15.657,97.513a320.336,320.336,0,0,0-20.229-40.716,4.12,4.12,0,0,0-5.622-1.47,4.081,4.081,0,0,0-1.9,2.508,4.081,4.081,0,0,0,.43,3.116,303.19,303.19,0,0,1,21.628,44.562c-1.138,1.725-2.221,3.454-3.239,5.173l-23.781-36.59a4.078,4.078,0,0,0-2.594-1.783,4.087,4.087,0,0,0-3.093.574,4.083,4.083,0,0,0-1.781,2.593,4.081,4.081,0,0,0,.575,3.093l26.242,40.378a71.436,71.436,0,0,0-5.313,14.688c-17-6.972-38.255-26.022-51.475-46.362-14.611-22.483-12.341-40.862,6.563-53.149,9.636-6.262,19.036-7.918,27.938-4.922,8.466,2.849,16.3,9.748,23.3,20.507a147.394,147.394,0,0,1,18.021,40.838C-418.75,94.76-420.646,97.088-422.443,99.435Zm-4.4-73.056Z" transform="translate(0 0)" fill="#f0f0f0"/>
    <path id="Path_83998" data-name="Path 83998" d="M-45.945,269.936c6.169-4.8,4.381-14.7-.912-21.506s-14.45-10.964-20.623-6.168c-3.048,2.371-4.393,6.178-3.787,10.72a23.224,23.224,0,0,0,4.7,10.787,23.175,23.175,0,0,0,9.318,7.2,13.83,13.83,0,0,0,5.111,1.052A9.9,9.9,0,0,0-45.945,269.936ZM-62.43,248.748a1.931,1.931,0,0,1,1.213-.367,6.646,6.646,0,0,1,2.747.819,16.407,16.407,0,0,1,5.127,4.278,16.732,16.732,0,0,1,2.883,5.991c.262,1.128.54,3.144-.532,3.979-1.815,1.411-6.515-1.421-9.088-4.728S-64.244,250.16-62.43,248.748Z" transform="translate(-291.631 -166.595)" fill="#f0f0f0"/>
    <path id="Path_83999" data-name="Path 83999" d="M-245.721,322.223a4.072,4.072,0,0,0,2.58.919,4.162,4.162,0,0,0,.441-.023,4.084,4.084,0,0,0,2.761-1.5h0c9.176-11.322,22.347-24.585,36.139-36.389a4.117,4.117,0,0,0,.449-5.795,4.084,4.084,0,0,0-2.8-1.425,4.087,4.087,0,0,0-2.992.975c-14.159,12.119-27.71,25.772-37.178,37.458a4.081,4.081,0,0,0-.9,3.016A4.081,4.081,0,0,0-245.721,322.223Z" transform="translate(-174.768 -191.72)" fill="#f0f0f0"/>
    <path id="Path_84000" data-name="Path 84000" d="M-153.56,370.554h0c-14.825,10.463-30.919,19.97-44.157,26.082a4.083,4.083,0,0,0-2.134,2.311,4.083,4.083,0,0,0,.126,3.143,4.08,4.08,0,0,0,2.313,2.134,4.124,4.124,0,0,0,1.423.255,4.083,4.083,0,0,0,1.719-.381c13.669-6.312,30.235-16.091,45.45-26.829a4.115,4.115,0,0,0,.987-5.729A4.116,4.116,0,0,0-153.56,370.554Z" transform="translate(-206.095 -252.737)" fill="#f0f0f0"/>
    <path id="Path_84001" data-name="Path 84001" d="M-197.124,342.6a4.082,4.082,0,0,0-2.736-1.556,4.077,4.077,0,0,0-3.033.837l-40.5,31.51a4.082,4.082,0,0,0-1.554,2.735,4.083,4.083,0,0,0,.834,3.031,4.079,4.079,0,0,0,2.739,1.556,4.2,4.2,0,0,0,.513.032,4.083,4.083,0,0,0,2.517-.867l40.5-31.51A4.116,4.116,0,0,0-197.124,342.6Z" transform="translate(-176.273 -233.599)" fill="#f0f0f0"/>
  </g>
</svg>
