<svg id="Group_18297" data-name="Group 18297" xmlns="http://www.w3.org/2000/svg" width="125.971" height="164.569" viewBox="0 0 125.971 164.569">
  <path id="Path_83986" data-name="Path 83986" d="M685.047,20.932l-3.1-10.2A22.447,22.447,0,0,0,653.473-3.3a22.588,22.588,0,0,0-14.036,14.042l-3.095,10.187a57.811,57.811,0,0,0-1.6,26.668,25.132,25.132,0,0,0,12.829,17.507l-3.456,77.27a15.6,15.6,0,0,0,3.938,12.118,17.178,17.178,0,0,0,24.241,1.086c.376-.343.741-.709,1.087-1.087a15.4,15.4,0,0,0,3.939-11.775L673.841,65.1a25.131,25.131,0,0,0,12.811-17.5A57.806,57.806,0,0,0,685.047,20.932ZM663.4,62.124l3.665,81.4a5.255,5.255,0,0,1-1.354,4.108,7.15,7.15,0,0,1-10.02.014,5.478,5.478,0,0,1-1.337-4.46l3.635-81.067a5.129,5.129,0,0,0-3.333-5.044,15.012,15.012,0,0,1-9.795-11.272,47.447,47.447,0,0,1,1.317-21.866l3.089-10.174a12.184,12.184,0,0,1,22.847-.018l3.1,10.192a47.515,47.515,0,0,1,1.317,21.864,15.019,15.019,0,0,1-9.8,11.277A5.126,5.126,0,0,0,663.4,62.124Z" transform="translate(-561.544 4.502)" fill="#f0f0f0"/>
  <path id="Path_83987" data-name="Path 83987" d="M454.965-4.4A5.145,5.145,0,0,0,449.826.739V42L436.868,54.959a5.15,5.15,0,0,0-1.505,3.891l4.219,84.371a6.268,6.268,0,0,1-1.731,4.671,6.471,6.471,0,0,1-9.15.04l-.037-.037a6.267,6.267,0,0,1-1.734-4.677l4.247-84.369a5.15,5.15,0,0,0-1.5-3.89L416.714,42V.739a5.139,5.139,0,0,0-10.278,0v43.39a5.107,5.107,0,0,0,1.506,3.633l12.85,12.854-4.105,82.1a16.6,16.6,0,0,0,15.776,17.392c.274.013.545.02.817.02a16.626,16.626,0,0,0,16.575-15.8c.026-.536.026-1.079,0-1.616l-4.106-82.1L458.6,47.763A5.106,5.106,0,0,0,460.1,44.13V.74A5.145,5.145,0,0,0,454.965-4.4Z" transform="translate(-406.436 4.432)" fill="#f0f0f0"/>
  <path id="Path_83988" data-name="Path 83988" d="M457.053,44.447a5.145,5.145,0,0,0,5.139-5.139V.739a5.139,5.139,0,0,0-10.278,0V39.308A5.145,5.145,0,0,0,457.053,44.447Z" transform="translate(-437.451 4.432)" fill="#f0f0f0"/>
  <path id="Path_83989" data-name="Path 83989" d="M502.533,44.447a5.145,5.145,0,0,0,5.139-5.139V.739a5.139,5.139,0,0,0-10.278,0V39.308A5.145,5.145,0,0,0,502.533,44.447Z" transform="translate(-468.467 4.432)" fill="#f0f0f0"/>
</svg>
