<svg id="Group_18291" data-name="Group 18291" xmlns="http://www.w3.org/2000/svg" width="119" height="165.29" viewBox="0 0 119 165.29">
  <g id="Group_18286" data-name="Group 18286" transform="translate(0 0)">
    <g id="Group_18285" data-name="Group 18285" transform="translate(0)">
      <path id="Path_83984" data-name="Path 83984" d="M146.46,18.223c-3.817-5.613-7.185-10.777-10.328-15.492a6.834,6.834,0,0,0-1.8-1.8,5.85,5.85,0,0,0-8.083,1.8c-2.919,4.715-6.287,9.655-10.328,15.492C98.186,44.269,71.692,83.562,71.692,106.014A59.233,59.233,0,0,0,89.205,148a59.988,59.988,0,0,0,41.987,17.289,59.8,59.8,0,0,0,59.5-59.5C190.692,83.337,164.2,44.269,146.46,18.223ZM165.1,139.694a47.486,47.486,0,0,1-33.9,13.921,48.433,48.433,0,0,1-33.9-13.921,47.487,47.487,0,0,1-13.921-33.9c0-18.86,25.372-56.357,42.212-81.28,2.021-2.919,3.817-5.838,5.613-8.307,1.8,2.47,3.592,5.389,5.613,8.307,16.84,25.147,42.211,62.419,42.211,81.28A48.433,48.433,0,0,1,165.1,139.694Z" transform="translate(-71.692 0)" fill="#f0f0f0"/>
    </g>
  </g>
  <g id="Group_18288" data-name="Group 18288" transform="translate(70.682 101.734)">
    <g id="Group_18287" data-name="Group 18287">
      <path id="Path_83985" data-name="Path 83985" d="M314.256,315.144a5.756,5.756,0,0,0-6.062,5.389,28.9,28.9,0,0,1-4.266,13.7,27.287,27.287,0,0,1-10.328,9.879,5.933,5.933,0,0,0,5.837,10.328,38.9,38.9,0,0,0,14.37-13.921,38.207,38.207,0,0,0,5.838-19.31A5.756,5.756,0,0,0,314.256,315.144Z" transform="translate(-290.636 -315.13)" fill="#f0f0f0"/>
    </g>
  </g>
</svg>
