<svg xmlns="http://www.w3.org/2000/svg" width="272.965" height="272.965" viewBox="0 0 272.965 272.965">
  <g id="Group_18326" data-name="Group 18326" transform="translate(-22.4 -22.4)">
    <path id="Path_84007" data-name="Path 84007"
      d="M268.816,22.4H48.949A26.567,26.567,0,0,0,22.4,48.949V268.816a26.567,26.567,0,0,0,26.549,26.549H268.816a26.567,26.567,0,0,0,26.549-26.549V48.949A26.567,26.567,0,0,0,268.816,22.4Zm0,11.218a15.341,15.341,0,0,1,15.331,15.331V268.816a15.8,15.8,0,0,1-15.331,15.331H48.949a15.341,15.341,0,0,1-15.331-15.331V48.949A15.294,15.294,0,0,1,47.172,33.8a15.087,15.087,0,0,1,1.776-.178Z"
      transform="translate(0 0)" fill="#DB4242" />
    <path id="Path_84008" data-name="Path 84008"
      d="M134.341,276.388a10.61,10.61,0,0,0,10.283.467l13.087-6.544,18.061,9.04a10.629,10.629,0,0,0,9.479,0l18.079-9.04,18.061,9.04a10.629,10.629,0,0,0,9.479,0l18.061-9.04,13.087,6.544a10.6,10.6,0,0,0,15.34-9.479V123.9a10.6,10.6,0,0,0-15.34-9.479l-13.087,6.544-18.061-9.04a10.64,10.64,0,0,0-9.479,0l-18.061,9.04-18.061-9.04a10.629,10.629,0,0,0-9.479,0l-18.061,9.04-13.087-6.544a10.6,10.6,0,0,0-15.331,9.479V267.376a10.592,10.592,0,0,0,5.029,9.012Zm6.188-151.439,12.461,6.226a10.64,10.64,0,0,0,9.479,0l18.061-9.03,18.061,9.03a10.629,10.629,0,0,0,9.479,0l18.061-9.03,18.061,9.03a10.629,10.629,0,0,0,9.479,0l12.461-6.226V266.367l-12.461-6.226a10.629,10.629,0,0,0-9.479,0l-18.061,9.03-18.061-9.03a10.629,10.629,0,0,0-9.479,0l-18.061,9.03-18.061-9.03a10.636,10.636,0,0,0-9.479,0l-12.461,6.226Z"
      transform="translate(-44.448 -36.756)" fill="#DB4242" />
    <g id="Group_18325" data-name="Group 18325" transform="translate(133.465 113.526)">
      <path id="Path_84009" data-name="Path 84009"
        d="M233.976,217.789a5.609,5.609,0,0,0,7.927,0l29.69-29.708a5.609,5.609,0,1,0-7.647-8.207q-.145.135-.28.28L237.94,205.889,222.1,190.072A5.609,5.609,0,0,0,214.168,198Z"
        transform="translate(-212.522 -178.368)" fill="#DB4242" />
      <path id="Path_84010" data-name="Path 84010"
        d="M218.1,274.562h39.617a5.609,5.609,0,1,0,0-11.218H218.1a5.609,5.609,0,1,0,0,11.218Z"
        transform="translate(-212.496 -213.696)" fill="#DB4242" />
      <path id="Path_84011" data-name="Path 84011"
        d="M218.1,308.466h39.617a5.609,5.609,0,1,0,0-11.218H218.1a5.609,5.609,0,0,0,0,11.218Z"
        transform="translate(-212.496 -227.792)" fill="#DB4242" />
    </g>
  </g>
</svg>
