<svg id="Group_18434" data-name="Group 18434" xmlns="http://www.w3.org/2000/svg" width="40.672" height="49.04" viewBox="0 0 40.672 49.04">
  <g id="Group_56" data-name="Group 56" transform="translate(0 0)">
    <path id="Path_337" data-name="Path 337" d="M79.7,249.75a13.652,13.652,0,0,0-.041-1.416,4.327,4.327,0,0,0-2.815-3.7,4.447,4.447,0,0,0-1.452-.269c-.11,0-.22,0-.334,0s-.212,0-.317,0c-1.408-.016-2.819,0-4.231,0-.264,0-.529-.037-.846-.065a3.6,3.6,0,0,0-2.392-4.056H51.577l-.061.024a3.6,3.6,0,0,0-2.327,4.028c-.35.024-.639.069-.928.069-1.375.008-2.754-.012-4.129,0-.106,0-.212,0-.317,0-.151,0-.3,0-.452,0a4.436,4.436,0,0,0-2.352.712l-.11.073a3.7,3.7,0,0,0-1.375,1.611c-.02.041-.041.085-.061.126s-.037.094-.057.142a4.561,4.561,0,0,0-.33,1.306l-.012.159c-.037.415-.033.834-.033,1.257q-.006,13.273,0,26.554v7.409a9.334,9.334,0,0,0,.277,2.612c.419,1.383,1.367,2.12,3.332,2.946H76.11c1.871-.789,2.819-1.5,3.259-2.775a8.609,8.609,0,0,0,.334-2.783v-8.45Q79.7,262.5,79.7,249.75Zm-26.3-5.378h11.99v3.971H53.4Zm22.287,39.777c-.008.818-.269,1.05-1.1,1.041-4.329-.024-8.658-.02-12.986-.02H57.224c-4.353,0-8.7,0-13.056.02-.858.008-1.111-.236-1.107-1.107v-.012q.018-7.067.02-14.138.006-10.246-.016-20.493a2.557,2.557,0,0,1,.028-.415v-.008a.678.678,0,0,1,.627-.655h1.343a.1.1,0,0,1,.049,0c1.037.008,2.083,0,3.153,0h.9c.012.1.02.2.024.285a8.461,8.461,0,0,0,.012.923,3.094,3.094,0,0,0,1.534,2.478c.065.037.13.073.2.1a2.03,2.03,0,0,0,.2.085c.09.037.179.065.273.094a2.284,2.284,0,0,0,.289.065c.1.02.2.033.3.045s.2.012.309.012q7.1.024,14.215,0h.033a3.061,3.061,0,0,0,3.108-2.88c.033-.354,0-.716,0-1.208h.834c1.07,0,2.116.012,3.157,0a.114.114,0,0,1,.053,0h1.322c.533.081.659.431.659,1.078q-.012,7.946-.016,15.887v4.528q0,1.538,0,3.072,0,2.52,0,5.033.006,3.064.012,6.123Z" transform="translate(-39.03 -240.23)" fill="#28924f"/>
    <path id="Path_338" data-name="Path 338" d="M75.176,302.783a2.208,2.208,0,0,1-2.408,2.339c-1.169.009-2.334.014-3.5.014-2.559.009-5.118,0-7.672-.014a2.251,2.251,0,0,1-2.453-2.307,2.14,2.14,0,0,1,1.733-2.109,3.334,3.334,0,0,1,.7-.082c1.885-.023,3.77-.009,5.65-.009,1.843,0,3.682-.014,5.526,0C74.272,300.642,75.144,301.435,75.176,302.783Z" transform="translate(-51.517 -276.323)" fill="#28924f"/>
    <path id="Path_339" data-name="Path 339" d="M102.992,282.674c.014,1.431-.908,2.284-2.563,2.316-1.431.028-2.862,0-4.292,0s-2.862.023-4.3,0a2.316,2.316,0,1,1,.06-4.586q4.231-.028,8.465,0C102,280.413,102.973,281.284,102.992,282.674Z" transform="translate(-69.92 -264.241)" fill="#28924f"/>
    <path id="Path_340" data-name="Path 340" d="M67.923,322.908a2.312,2.312,0,0,1-2.371,2.247q-.144.014-.289.014c-1.431.014-2.866,0-4.292,0s-2.866.018-4.3,0a2.232,2.232,0,0,1-2.5-2.252,2.282,2.282,0,0,1,2.563-2.33q3.8-.028,7.613,0c.326,0,.651,0,.977,0A2.351,2.351,0,0,1,67.923,322.908Z" transform="translate(-48.346 -288.262)" fill="#28924f"/>
    <path id="Path_341" data-name="Path 341" d="M68.27,282.622a2.172,2.172,0,0,1-2.16,2.334c-.307.023-.61.032-.917.032-.2,0-.4,0-.605-.009-.046,0-.092,0-.133,0-.161,0-.312,0-.472,0-.05,0-.105,0-.161,0h-.165c-.119,0-.238,0-.358,0-.179,0-.358,0-.537.009-.33.009-.656.009-.986,0-.147,0-.3-.014-.449-.023a2.252,2.252,0,0,1-2.187-2.334,2.221,2.221,0,0,1,2.183-2.215c1.591-.073,3.192-.069,4.783,0A2.19,2.19,0,0,1,68.27,282.622Z" transform="translate(-51.216 -264.22)" fill="#28924f"/>
  </g>
</svg>
