<svg xmlns="http://www.w3.org/2000/svg" width="178.505" height="156.624" viewBox="0 0 178.505 156.624">
  <path id="Path_83993" data-name="Path 83993" d="M-460.74,99.922a4.763,4.763,0,0,0-1.5-1.114c5.321-4.989,10.687-11.256,10.687-19.924,0-7.932-4.218-14.781-11.005-17.872a17.371,17.371,0,0,0-17.916,1.95A17.388,17.388,0,0,0-498.4,61.019c-6.784,3.094-11,9.936-11,17.865,0,8.444,5.1,14.614,10.288,19.541a59.721,59.721,0,0,0-12.267,5.153,59.257,59.257,0,0,0-7.72-3.615q-1.624-.627-3.282-1.155c5.321-4.989,10.687-11.256,10.687-19.924,0-7.932-4.218-14.781-11.005-17.872a17.371,17.371,0,0,0-17.916,1.95,17.388,17.388,0,0,0-17.927-1.943c-6.784,3.094-11,9.936-11,17.865,0,8.662,5.369,14.932,10.69,19.921-.778.25-1.549.514-2.316.8a60.72,60.72,0,0,0-27.565,20.555,59.458,59.458,0,0,0-11.9,35.833,60.083,60.083,0,0,0,60.016,60.016,60.016,60.016,0,0,0,29.237-7.606,60.015,60.015,0,0,0,29.237,7.606,59.606,59.606,0,0,0,42.418-17.6,61.23,61.23,0,0,0,8.936-11.355,59.287,59.287,0,0,0,8.662-31.063A60.112,60.112,0,0,0-460.74,99.922Zm-34.755-12.794C-497.921,84.2-499,81.656-499,78.884c0-4.184,2.227-7.606,5.677-8.723,3.149-1.021,6.462.216,8.641,3.228a5.138,5.138,0,0,0,4.211,2.152,5.136,5.136,0,0,0,4.208-2.152c2.179-3.008,5.492-4.242,8.651-3.221,3.443,1.117,5.671,4.536,5.671,8.717,0,6.161-6.068,11.345-13.109,17.341-1.857-.168-3.68-.25-5.42-.25-.29,0-.583.006-.876.01-.263,0-.526-.01-.791-.01q-1.962,0-3.915.13A86.314,86.314,0,0,1-495.495,87.128Zm-63.649-8.244c0-4.184,2.227-7.606,5.677-8.723,3.149-1.021,6.462.216,8.641,3.228a5.138,5.138,0,0,0,4.211,2.152,5.136,5.136,0,0,0,4.208-2.152c2.179-3.008,5.492-4.242,8.651-3.221,3.443,1.117,5.671,4.536,5.671,8.717,0,6.161-6.068,11.345-13.109,17.341-1.857-.168-3.68-.25-5.42-.25-1.782,0-3.611.082-5.444.247a87.442,87.442,0,0,1-9.577-9.093C-558.061,84.2-559.144,81.656-559.144,78.884Zm44.991,119.089a49.445,49.445,0,0,1-26.462,7.641,49.68,49.68,0,0,1-49.624-49.624,49.68,49.68,0,0,1,49.624-49.624,49.283,49.283,0,0,1,19.5,3.988,59.325,59.325,0,0,0-5.129,4.941,42.779,42.779,0,0,0-37.608,4.379,42.953,42.953,0,0,0-19.917,36.316,43.2,43.2,0,0,0,43.151,43.148,42.769,42.769,0,0,0,18.036-3.944,43.448,43.448,0,0,0,15.2-11.691l-.13-.11.171.062.021-.027a43.2,43.2,0,0,0,9.851-27.438,43.03,43.03,0,0,0-7.158-23.8,32.956,32.956,0,0,1,5.129-3.968,49.907,49.907,0,0,1-2.553,58.988A49.583,49.583,0,0,1-514.153,197.973ZM-533,187.852a32.946,32.946,0,0,1-7.617.894,32.8,32.8,0,0,1-32.759-32.756,32.6,32.6,0,0,1,15.124-27.565,32.541,32.541,0,0,1,17.615-5.222,32.662,32.662,0,0,1,7.661.918,59.837,59.837,0,0,0-8.381,22.162A59.881,59.881,0,0,0-533,187.852Zm18.1-31.861a32.8,32.8,0,0,1,3.526-14.771,32.768,32.768,0,0,1,0,29.542A32.931,32.931,0,0,1-514.9,155.99Zm32.759,49.624a49.309,49.309,0,0,1-19.5-3.988,59.72,59.72,0,0,0,5.129-4.941,42.873,42.873,0,0,0,14.367,2.453,43.2,43.2,0,0,0,43.148-43.148,43.2,43.2,0,0,0-43.148-43.151,42.711,42.711,0,0,0-17.766,3.831,5.014,5.014,0,0,0-.555.257,43.663,43.663,0,0,0-14.6,11.2,5.326,5.326,0,0,0-.555.665,43.209,43.209,0,0,0-9.676,27.2,43,43,0,0,0,7.168,23.81,33.023,33.023,0,0,1-5.129,3.975,49.363,49.363,0,0,1-7.836-35.839A49.7,49.7,0,0,1-508.6,114a49.472,49.472,0,0,1,26.462-7.637,49.68,49.68,0,0,1,49.624,49.624A49.68,49.68,0,0,1-482.141,205.614Zm-7.62-81.485a32.748,32.748,0,0,1,7.62-.9,32.793,32.793,0,0,1,32.756,32.759,32.792,32.792,0,0,1-32.756,32.756,32.922,32.922,0,0,1-7.624-.887A59.981,59.981,0,0,0-480.6,155.99,59.954,59.954,0,0,0-489.761,124.129Z" transform="translate(600.63 -59.382)" fill="#f0f0f0"/>
</svg>
